Coordinates
version=1
nRows=7
nColumns=40
inDegrees=yes

Units are S.I. units (second, meters, Newtons, ...)
Angles are in degrees.

endheader
time	pelvis_tilt	pelvis_list	pelvis_rotation	pelvis_tx	pelvis_ty	pelvis_tz	hip_flexion_r	hip_adduction_r	hip_rotation_r	knee_angle_r	knee_angle_r_beta	ankle_angle_r	subtalar_angle_r	mtp_angle_r	hip_flexion_l	hip_adduction_l	hip_rotation_l	knee_angle_l	knee_angle_l_beta	ankle_angle_l	subtalar_angle_l	mtp_angle_l	lumbar_extension	lumbar_bending	lumbar_rotation	arm_flex_r	arm_add_r	arm_rot_r	elbow_flex_r	pro_sup_r	wrist_flex_r	wrist_dev_r	arm_flex_l	arm_add_l	arm_rot_l	elbow_flex_l	pro_sup_l	wrist_flex_l	wrist_dev_l
      7.30000000	     -2.53213399	     -2.08223030	     -0.08282460	      0.73109633	      0.92937209	      0.44252913	     28.04302353	     -8.81768680	     -8.34950369	     70.43861038	     70.43861038	      2.31023603	    -19.63002645	     19.83952444	     15.18486900	     -0.93233884	     -1.89532190	     23.20506615	     23.20506615	     12.90499386	    -14.13607365	      1.08401633	    -10.10007731	      4.10601179	      1.03429476	     -1.85352908	    -12.65907185	     -2.99679048	     28.15808241	     46.04378732	      0.00000000	      0.00000000	      1.72851578	    -12.25471602	     -0.73476434	     51.45635019	     46.13079275	      0.00000000	      0.00000000
      7.31400000	     -2.47946797	     -2.22632591	     -0.42847824	      0.73046159	      0.93031179	      0.44252203	     29.01790971	     -8.08389566	     -7.98748348	     68.95313981	     68.95313981	      2.87909872	    -19.60357796	     19.90684219	     14.32365162	     -1.18447163	     -2.42589766	     22.68463994	     22.68463994	     13.17578068	    -13.53768041	      0.84758537	    -10.24997494	      4.34648441	      1.12179579	     -3.30967868	    -12.59115715	     -2.97463377	     27.07020212	     46.08078721	      0.00000000	      0.00000000	      2.34273605	    -12.33169429	     -1.01903353	     52.97142002	     46.18644128	      0.00000000	      0.00000000
      7.32800000	     -2.47383481	     -2.37458163	     -0.73816315	      0.72980917	      0.93111637	      0.44247262	     29.89786230	     -7.35092714	     -7.67467977	     67.19941226	     67.19941226	      3.27444873	    -19.56946431	     19.65883062	     13.52966883	     -1.38574655	     -2.78023153	     22.17642379	     22.17642379	     13.39265788	    -13.19847776	      0.68831210	    -10.37469457	      4.57061408	      1.05819201	     -4.72945778	    -12.50085624	     -3.02604561	     26.04408587	     46.12335562	      0.00000000	      0.00000000	      2.71400574	    -12.52341854	     -1.36226889	     54.99244500	     46.25500826	      0.00000000	      0.00000000
      7.34200000	     -2.45112528	     -2.52227733	     -1.03320963	      0.72915213	      0.93189054	      0.44246703	     30.59476266	     -6.62424390	     -7.40654835	     65.11894459	     65.11894459	      3.57693192	    -19.53015523	     19.22991741	     12.70640966	     -1.56863968	     -3.10058796	     21.63237768	     21.63237768	     13.58981587	    -12.93081929	      0.62041745	    -10.51332665	      4.81339679	      0.94986365	     -6.08821514	    -12.45224530	     -3.10466677	     25.16469406	     46.16266741	      0.00000000	      0.00000000	      3.10943045	    -12.71052215	     -1.73564293	     56.93131803	     46.32538008	      0.00000000	      0.00000000
      7.35600000	     -2.49836701	     -2.67712129	     -1.30880483	      0.72844558	      0.93242906	      0.44253949	     31.19809411	     -5.89880107	     -7.18158546	     62.67409113	     62.67409113	      3.66078184	    -19.47543634	     18.15697004	     11.99038060	     -1.76686964	     -3.41349330	     21.12777933	     21.12777933	     13.81398452	    -12.56319403	      0.44694188	    -10.58054248	      5.04414941	      0.60384386	     -7.20534305	    -12.40412440	     -3.36614979	     24.31798785	     46.22666857	      0.00000000	      0.00000000	      3.09665446	    -13.00608786	     -2.30643864	     59.57179023	     46.43005399	      0.00000000	      0.00000000
      7.37000000	     -2.55515732	     -2.86718817	     -1.53889282	      0.72766198	      0.93299959	      0.44272361	     31.63120357	     -5.14645140	     -7.04693043	     59.81636605	     59.81636605	      3.94040099	    -19.39580817	     17.89352947	     11.31466426	     -1.98447216	     -3.62845196	     20.64574023	     20.64574023	     13.97736835	    -12.38250886	      0.48034804	    -10.61522837	      5.35374985	      0.41188384	     -8.39149377	    -12.45342501	     -3.41950369	     23.78328034	     46.24729372	      0.00000000	      0.00000000	      3.74482349	    -13.17058878	     -2.60743114	     60.55938852	     46.47696233	      0.00000000	      0.00000000
      7.38400000	     -2.57380640	     -2.98255922	     -1.81830220	      0.72692780	      0.93336714	      0.44312462	     31.78529714	     -4.49649549	     -6.94854652	     56.44807002	     56.44807002	      3.45219026	    -19.28472177	     14.92637954	     10.61333021	     -2.18330007	     -4.09261056	     20.21258235	     20.21258235	     14.25689432	    -11.82781782	      0.20622314	    -10.77510728	      5.48619983	      0.14029612	     -9.37519604	    -12.42917309	     -4.00674823	     23.35719485	     46.33290515	      0.00000000	      0.00000000	      3.72127401	    -13.44200041	     -3.50608511	     63.52413164	     46.62435709	      0.00000000	      0.00000000
